<svg width="68" height="32" viewBox="0 0 68 32" fill="none" xmlns="http://www.w3.org/2000/svg">
<path d="M34.0682 6.06958C32.6329 6.06958 31.2578 6.62269 30.2139 7.58429L33.0389 10.4323C33.3324 10.2104 33.6881 10.0865 34.0682 10.0865C34.4483 10.0865 34.804 10.2104 35.0975 10.4323L37.9224 7.58429C36.8785 6.62282 35.5035 6.06958 34.0682 6.06958Z" fill="white"/>
<path d="M34.0679 0C31.0214 0 28.1169 1.17249 25.9187 3.25463L28.7399 6.09874C30.1918 4.76679 32.0841 4.01674 34.0681 4.01674C36.0519 4.01674 37.9442 4.76679 39.396 6.09874L42.2172 3.25463C40.019 1.17262 37.1145 0 34.0679 0Z" fill="white"/>
<path d="M51 6.60449V10.6212H57.5078V14.2818H10.4922V10.6212H17V6.60449H0V10.6212H6.50781V20.6805L22.0911 24.965V29.7239H26.3411V32H30.3255V29.7239H37.6745V32H41.6589V29.7239H45.9089V24.965L61.4922 20.6805V10.6212H68V6.60449H51Z" fill="white"/>
</svg>
