<svg width="56" height="27" viewBox="0 0 56 27" fill="none" xmlns="http://www.w3.org/2000/svg">
<path d="M28.0561 4.95688C26.8741 4.95688 25.7416 5.40858 24.882 6.19389L27.2085 8.51976C27.4502 8.33858 27.7431 8.23732 28.0561 8.23732C28.3692 8.23732 28.6621 8.33858 28.9038 8.51976L31.2302 6.19389C30.3705 5.40869 29.2381 4.95688 28.0561 4.95688Z" fill="white"/>
<path d="M28.056 0C25.547 0 23.1551 0.95753 21.3448 2.65795L23.6682 4.98064C24.8639 3.89288 26.4223 3.28033 28.0561 3.28033C29.6898 3.28033 31.2482 3.89288 32.4438 4.98064L34.7671 2.65795C32.9569 0.957639 30.5649 0 28.056 0Z" fill="white"/>
<path d="M42 5.39365V8.67398H47.3594V11.6635H8.64062V8.67398H14V5.39365H0V8.67398H5.35938V16.889L18.1927 20.3881V24.2745H21.6927V26.1333H24.9739V24.2745H31.0261V26.1333H34.3073V24.2745H37.8073V20.3881L50.6406 16.889V8.67398H56V5.39365H42Z" fill="white"/>
</svg>
