<svg width="25" height="25" viewBox="0 0 25 25" fill="none" xmlns="http://www.w3.org/2000/svg">
<path d="M24.8474 23.3745L17.5851 16.1122C18.9626 14.4116 19.7917 12.2497 19.7917 9.89588C19.7917 4.43932 15.3524 0 9.89583 0C4.43927 0 0 4.43932 0 9.89588C0 15.3524 4.43932 19.7918 9.89588 19.7918C12.2497 19.7918 14.4116 18.9626 16.1122 17.5852L23.3745 24.8475C23.5779 25.0508 23.9076 25.0508 24.1111 24.8475L24.8475 24.1111C25.0508 23.9076 25.0508 23.5778 24.8474 23.3745ZM9.89588 17.7084C5.58781 17.7084 2.08336 14.2039 2.08336 9.89588C2.08336 5.58781 5.58781 2.08336 9.89588 2.08336C14.2039 2.08336 17.7084 5.58781 17.7084 9.89588C17.7084 14.2039 14.2039 17.7084 9.89588 17.7084Z" fill="white"/>
</svg>
