<svg width="30" height="24" viewBox="0 0 30 24" fill="none" xmlns="http://www.w3.org/2000/svg">
<path fill-rule="evenodd" clip-rule="evenodd" d="M20.1489 0.101685H9.15857L4.57929 4.9845H0V23.3439H29.3074V4.9845H24.7281L20.1489 0.101685ZM2.51861 8.30481C1.75989 8.30481 1.14482 7.78014 1.14482 7.13293C1.14482 6.48573 1.75989 5.96106 2.51861 5.96106C3.27733 5.96106 3.89239 6.48573 3.89239 7.13293C3.89239 7.78014 3.27733 8.30481 2.51861 8.30481ZM7.09789 14.1642C7.09789 17.7238 10.4808 20.6095 14.6537 20.6095C18.8267 20.6095 22.2095 17.7238 22.2095 14.1642C22.2095 10.6045 18.8267 7.71887 14.6537 7.71887C10.4808 7.71887 7.09789 10.6045 7.09789 14.1642ZM14.6537 18.0704C12.1246 18.0704 10.0744 16.3215 10.0744 14.1642C10.0744 12.0068 12.1246 10.2579 14.6537 10.2579C17.1828 10.2579 19.233 12.0068 19.233 14.1642C19.233 16.3215 17.1828 18.0704 14.6537 18.0704Z" fill="#222222"/>
</svg>
