<svg width="18" height="15" viewBox="0 0 18 15" fill="none" xmlns="http://www.w3.org/2000/svg">
<path fill-rule="evenodd" clip-rule="evenodd" d="M1 0C0.734784 0 0.48043 0.111742 0.292893 0.310645C0.105357 0.509547 0 0.779316 0 1.06061C0 1.3419 0.105357 1.61167 0.292893 1.81057C0.48043 2.00947 0.734784 2.12121 1 2.12121H17C17.2652 2.12121 17.5196 2.00947 17.7071 1.81057C17.8946 1.61167 18 1.3419 18 1.06061C18 0.779316 17.8946 0.509547 17.7071 0.310645C17.5196 0.111742 17.2652 0 17 0H1ZM0 7.42424C0 7.14295 0.105357 6.87318 0.292893 6.67428C0.48043 6.47538 0.734784 6.36364 1 6.36364H17C17.2652 6.36364 17.5196 6.47538 17.7071 6.67428C17.8946 6.87318 18 7.14295 18 7.42424C18 7.70553 17.8946 7.9753 17.7071 8.1742C17.5196 8.37311 17.2652 8.48485 17 8.48485H1C0.734784 8.48485 0.48043 8.37311 0.292893 8.1742C0.105357 7.9753 0 7.70553 0 7.42424ZM0 13.7879C0 13.5066 0.105357 13.2368 0.292893 13.0379C0.48043 12.839 0.734784 12.7273 1 12.7273H17C17.2652 12.7273 17.5196 12.839 17.7071 13.0379C17.8946 13.2368 18 13.5066 18 13.7879C18 14.0692 17.8946 14.3389 17.7071 14.5378C17.5196 14.7367 17.2652 14.8485 17 14.8485H1C0.734784 14.8485 0.48043 14.7367 0.292893 14.5378C0.105357 14.3389 0 14.0692 0 13.7879Z" fill="white"/>
</svg>
