<svg width="30" height="26" viewBox="0 0 30 26" fill="none" xmlns="http://www.w3.org/2000/svg">
<path fill-rule="evenodd" clip-rule="evenodd" d="M7.27794 5.36563C9.03589 4.06064 11.2739 3.21413 13.7361 3.04443V0.101685C10.3099 0.281915 7.20164 1.46451 4.80935 3.30992L7.27794 5.36563ZM15.5713 3.04443V0.101685C18.7911 0.271055 21.7301 1.32564 24.058 2.98365L21.6446 5.09243C19.9499 3.94287 17.8572 3.20198 15.5713 3.04443ZM22.9839 6.16329L25.391 4.05988C27.6433 6.11911 29.0911 8.82691 29.3074 11.8189H25.8576C25.6521 9.64954 24.6003 7.68412 22.9839 6.16329ZM25.7801 20.7732C27.8094 18.7646 29.1039 16.2004 29.3074 13.3844H25.8576C25.6663 15.4035 24.742 17.2459 23.3115 18.7176L25.7801 20.7732ZM24.498 21.8936L22.0295 19.8378C20.2715 21.1427 18.0335 21.9892 15.5713 22.1589V25.1017C18.9975 24.9214 22.1058 23.7389 24.498 21.8936ZM13.7361 25.1017V22.1589C11.2881 21.9902 9.06177 21.1525 7.30845 19.8604L4.90125 21.9638C7.28099 23.7688 10.3536 24.9238 13.7361 25.1017ZM3.60807 20.8527L6.02142 18.7439C4.57653 17.2678 3.64214 15.4155 3.44978 13.3844H0C0.206262 16.2376 1.5324 18.8323 3.60807 20.8527ZM0 11.8189H3.44978C3.64102 9.79987 4.5655 7.95748 5.99584 6.48575L3.52725 4.43006C1.498 6.43876 0.203572 9.00297 0 11.8189ZM20.9715 8.85941L14.438 15.1516L14.4305 15.1429C14.3748 15.1867 14.3157 15.2284 14.2533 15.2676C13.3351 15.8444 12.0427 15.6772 11.3664 14.894C10.6902 14.1108 10.8863 13.0083 11.8044 12.4314C11.8669 12.3922 11.9311 12.3564 11.9966 12.3241L11.9892 12.3154L20.9715 8.85941Z" fill="#222222"/>
</svg>
